# xmcd
#
# Track frame offsets:
# 150
# 36632
# 61019
# 96479
# 119867
# 143628
# 171564
# 198708
# 230612
# 262862
# 292952
# 321169
#
# Disc length: 4484 seconds
#
#
# Revision: 1
# Processed by: cddbd v1.5.2PL0 Copyright (c) Steve Scherf et al.
# Submitted via: FreeRIP 2.941 
#
DISCID=be11820c
DTITLE=The Best In Dance Vol. 1 - CD 2 - The Best In Dance Vol. 1 - CD 2
DYEAR=2003
DGENRE=Dance
TTITLE0=DJ S.P.U.D. - Finally 2003 (Club Rmx)
TTITLE1=Benny Benassi - Able To Love (Sfaction Mix)
TTITLE2=Moguai - Get:On (Original Mix)
TTITLE3=Boogie Pimps - Somebody To Love (Salt Shaker Rmx) (Main Club Mix)
TTITLE4=KMC Feat. Sandy - Get Better (Sfaction Mix)
TTITLE5=Klubbingman - No Limit (On The Beach) (Xtd Mix)
TTITLE6=In-Grid - Tu Es Foutu (Original Xtd)
TTITLE7=Wells and Fargo - Nights In Palma (Master Blaster Rmx)
TTITLE8=Trinity - Everytime We Touch (Andre Visior Rmx)
TTITLE9=Rock Ryders - Don't You Know (Full On Vocal Mix)
TTITLE10=4Clubbers - Why Don't You Dance With Me? (Xtd Mix)
TTITLE11=D!Nation - You Gotta Be You (Radio Mix)
EXTD=
EXTT0=
EXTT1=
EXTT2=
EXTT3=
EXTT4=
EXTT5=
EXTT6=
EXTT7=
EXTT8=
EXTT9=
EXTT10=
EXTT11=
PLAYORDER=
